<!-- icon666.com - MILLIONS vector ICONS FREE --><svg viewBox="1 -21 511.999 511" xmlns="http://www.w3.org/2000/svg"><path d="m463.5 469.160156h-31.390625l7.035156-96.996094h24.355469c26.742188 0 48.5 21.753907 48.5 48.496094 0 26.742188-21.757812 48.5-48.5 48.5zm0 0" fill="#de9f62"></path><path d="m454.257812 469.546875-410.585937-.050781.003906-30.121094h44.539063c11.601562 0 21.042968-9.441406 21.042968-21.046875v-23.621094l-5.15625-6.695312c-17.136718-22.25-26.574218-49.972657-26.574218-78.058594v-.113281h-3.050782c-21.492187 0-30.730468-9.324219-41.429687-20.117188-.773437-.777344-1.574219-1.585937-2.40625-2.421875l-30.640625-30.636719 28.285156-62.269531c7.78125-17.136719 29.703125-42.488281 48.203125-50.488281l-22.878906-140.695312s58.132813-16.058594 76.160156 29.996093c2.078125 5.300781 2.972657 10.199219 4.167969 16.78125l12.644531 88.101563c20.316407 4.265625 38.984375 15.230468 53.503907 31.628906 17.085937 19.296875 26.5 43.902344 26.5 69.28125v21.664062h106.347656c66.898437 0 121.324218 54.425782 121.324218 121.324219zm0 0" fill="#de9f62"></path><path d="m332.933594 260.664062h-72.347656v208.859376l193.671874.023437v-87.558594c0-66.898437-54.425781-121.324219-121.324218-121.324219zm0 0" fill="#cf8142"></path><path d="m367.863281 334.308594c-43.714843 0-79.277343 35.5625-79.277343 79.277344v25.546874h30.125v-25.546874c0-27.105469 22.050781-49.15625 49.152343-49.15625h16.019531v-30.121094zm0 0" fill="#a95a25"></path></svg>